<svg xmlns="http://www.w3.org/2000/svg" xmlns:xlink="http://www.w3.org/1999/xlink" width="500" zoomAndPan="magnify" viewBox="0 0 375 374.999991" height="500" preserveAspectRatio="xMidYMid meet" version="1.0"><defs><g/></defs><rect x="-37.5" width="450" fill="#ffffff" y="-37.499999" height="449.999989" fill-opacity="1"/><rect x="-37.5" width="450" fill="#ffffff" y="-37.499999" height="449.999989" fill-opacity="1"/><g fill="#000000" fill-opacity="1"><g transform="translate(26.448469, 230.652326)"><g><path d="M 26.4375 -59.734375 L 26.4375 -31.328125 C 26.4375 -25.421875 27.328125 -21.222656 29.109375 -18.734375 C 30.898438 -16.253906 33.929688 -15.015625 38.203125 -15.015625 C 42.472656 -15.015625 45.5 -16.253906 47.28125 -18.734375 C 49.0625 -21.222656 49.953125 -25.421875 49.953125 -31.328125 L 49.953125 -59.734375 L 70.578125 -59.734375 L 70.578125 -26.3125 C 70.578125 -16.375 67.992188 -9.210938 62.828125 -4.828125 C 57.660156 -0.441406 49.445312 1.75 38.1875 1.75 C 26.9375 1.75 18.726562 -0.441406 13.5625 -4.828125 C 8.40625 -9.210938 5.828125 -16.375 5.828125 -26.3125 L 5.828125 -59.734375 Z M 26.4375 -59.734375 "/></g></g></g><g fill="#000000" fill-opacity="1"><g transform="translate(91.892311, 230.652326)"><g><path d="M 6.984375 0 L 6.984375 -59.734375 L 27.59375 -59.734375 L 27.59375 -53.453125 L 27.828125 -53.453125 C 33.191406 -58.804688 38.898438 -61.484375 44.953125 -61.484375 C 47.898438 -61.484375 50.828125 -61.09375 53.734375 -60.3125 C 56.648438 -59.539062 59.445312 -58.335938 62.125 -56.703125 C 64.800781 -55.078125 66.972656 -52.769531 68.640625 -49.78125 C 70.316406 -46.789062 71.15625 -43.316406 71.15625 -39.359375 L 71.15625 0 L 50.546875 0 L 50.546875 -33.765625 C 50.546875 -36.867188 49.554688 -39.585938 47.578125 -41.921875 C 45.597656 -44.253906 43.015625 -45.421875 39.828125 -45.421875 C 36.722656 -45.421875 33.90625 -44.21875 31.375 -41.8125 C 28.851562 -39.40625 27.59375 -36.722656 27.59375 -33.765625 L 27.59375 0 Z M 6.984375 0 "/></g></g></g><g fill="#000000" fill-opacity="1"><g transform="translate(157.918393, 230.652326)"><g><path d="M 38.78125 -44.609375 C 34.894531 -44.609375 31.554688 -43.171875 28.765625 -40.296875 C 25.972656 -37.421875 24.578125 -33.960938 24.578125 -29.921875 C 24.578125 -25.804688 25.972656 -22.3125 28.765625 -19.4375 C 31.554688 -16.570312 34.894531 -15.140625 38.78125 -15.140625 C 40.644531 -15.140625 42.410156 -15.367188 44.078125 -15.828125 C 45.742188 -16.296875 46.96875 -16.765625 47.75 -17.234375 L 48.796875 -17.9375 L 55.78125 -3.609375 C 55.238281 -3.222656 54.476562 -2.738281 53.5 -2.15625 C 52.53125 -1.570312 50.316406 -0.773438 46.859375 0.234375 C 43.410156 1.242188 39.707031 1.75 35.75 1.75 C 26.976562 1.75 19.269531 -1.332031 12.625 -7.5 C 5.988281 -13.675781 2.671875 -21.078125 2.671875 -29.703125 C 2.671875 -38.390625 5.988281 -45.859375 12.625 -52.109375 C 19.269531 -58.359375 26.976562 -61.484375 35.75 -61.484375 C 39.707031 -61.484375 43.351562 -61.015625 46.6875 -60.078125 C 50.03125 -59.148438 52.398438 -58.222656 53.796875 -57.296875 L 55.78125 -55.890625 L 48.796875 -41.8125 C 46.234375 -43.675781 42.894531 -44.609375 38.78125 -44.609375 Z M 38.78125 -44.609375 "/></g></g></g><g fill="#000000" fill-opacity="1"><g transform="translate(204.148126, 230.652326)"><g><path d="M 6.984375 0 L 6.984375 -100.15625 L 27.59375 -100.15625 L 27.59375 0 Z M 6.984375 0 "/></g></g></g><g fill="#000000" fill-opacity="1"><g transform="translate(227.78672, 230.652326)"><g><path d="M 67.421875 -27.015625 L 24.109375 -27.015625 C 24.109375 -22.828125 25.460938 -19.722656 28.171875 -17.703125 C 30.890625 -15.679688 33.84375 -14.671875 37.03125 -14.671875 C 40.375 -14.671875 43.015625 -15.113281 44.953125 -16 C 46.890625 -16.894531 49.101562 -18.664062 51.59375 -21.3125 L 66.5 -13.859375 C 60.28125 -3.453125 49.953125 1.75 35.515625 1.75 C 26.515625 1.75 18.789062 -1.332031 12.34375 -7.5 C 5.894531 -13.675781 2.671875 -21.113281 2.671875 -29.8125 C 2.671875 -38.507812 5.894531 -45.960938 12.34375 -52.171875 C 18.789062 -58.378906 26.515625 -61.484375 35.515625 -61.484375 C 44.984375 -61.484375 52.6875 -58.742188 58.625 -53.265625 C 64.570312 -47.796875 67.546875 -39.976562 67.546875 -29.8125 C 67.546875 -28.414062 67.503906 -27.484375 67.421875 -27.015625 Z M 24.6875 -38.421875 L 47.390625 -38.421875 C 46.929688 -41.535156 45.710938 -43.925781 43.734375 -45.59375 C 41.753906 -47.257812 39.207031 -48.09375 36.09375 -48.09375 C 32.675781 -48.09375 29.957031 -47.195312 27.9375 -45.40625 C 25.925781 -43.625 24.84375 -41.296875 24.6875 -38.421875 Z M 24.6875 -38.421875 "/></g></g></g><g fill="#000000" fill-opacity="1"><g transform="translate(287.058757, 230.652326)"><g/></g></g><g fill="#000000" fill-opacity="1"><g transform="translate(307.902566, 230.652326)"><g><path d="M 20.265625 -24.921875 C 23.992188 -24.921875 27.15625 -23.617188 29.75 -21.015625 C 32.351562 -18.421875 33.65625 -15.257812 33.65625 -11.53125 C 33.65625 -7.882812 32.351562 -4.757812 29.75 -2.15625 C 27.15625 0.445312 23.992188 1.75 20.265625 1.75 C 16.617188 1.75 13.492188 0.445312 10.890625 -2.15625 C 8.285156 -4.757812 6.984375 -7.882812 6.984375 -11.53125 C 6.984375 -15.257812 8.285156 -18.421875 10.890625 -21.015625 C 13.492188 -23.617188 16.617188 -24.921875 20.265625 -24.921875 Z M 20.265625 -24.921875 "/></g></g></g></svg>