<?xml version="1.0" standalone="no"?>
<!DOCTYPE svg PUBLIC "-//W3C//DTD SVG 20010904//EN"
 "http://www.w3.org/TR/2001/REC-SVG-20010904/DTD/svg10.dtd">
<svg version="1.0" xmlns="http://www.w3.org/2000/svg"
 width="863.000000pt" height="232.000000pt" viewBox="0 0 863.000000 232.000000"
 preserveAspectRatio="xMidYMid meet">

<g transform="translate(0.000000,232.000000) scale(0.100000,-0.100000)"
fill="#000000" stroke="none">
<path d="M5920 2225 l0 -74 43 -11 c23 -7 52 -18 65 -26 l22 -14 0 -943 c0
-518 -4 -947 -8 -954 -10 -16 -57 -33 -93 -33 l-29 0 0 -75 0 -75 460 0 460 0
0 74 0 73 -45 6 c-25 2 -55 13 -65 22 -20 18 -20 38 -20 1062 l0 1043 -395 0
-395 0 0 -75z"/>
<path d="M3255 1625 c-85 -19 -154 -46 -217 -88 -61 -41 -144 -124 -173 -174
-11 -18 -23 -33 -27 -33 -4 0 -8 63 -8 140 l0 140 -370 0 -371 0 3 -76 3 -75
54 -19 c29 -10 57 -24 62 -31 5 -8 9 -278 9 -600 0 -668 5 -626 -83 -636 l-47
-6 0 -73 0 -74 450 0 450 0 0 75 0 75 -34 0 c-19 0 -46 4 -60 10 l-26 10 0
473 0 474 38 59 c79 121 181 174 277 142 32 -10 45 -22 63 -58 22 -44 22 -45
22 -571 l0 -527 -22 -6 c-13 -3 -40 -6 -60 -6 l-38 0 0 -75 0 -75 455 0 455 0
0 75 0 75 -35 0 c-46 0 -80 17 -94 47 -8 16 -11 174 -11 506 0 525 -3 552 -58
665 -36 74 -114 152 -188 190 -113 57 -286 76 -419 47z"/>
<path d="M4935 1630 c-358 -47 -621 -240 -710 -521 -51 -162 -57 -361 -15
-524 73 -287 300 -495 618 -565 112 -25 384 -28 480 -5 146 34 269 113 365
232 53 66 117 165 117 182 0 4 -31 29 -69 54 l-69 46 -56 -89 c-67 -105 -137
-172 -226 -214 -58 -27 -75 -31 -155 -31 -79 0 -97 4 -147 28 -94 46 -157 140
-195 292 -23 91 -26 515 -4 610 58 256 190 372 364 321 l57 -17 0 -179 0 -180
230 0 230 0 -2 208 -3 207 -89 43 c-187 92 -481 133 -721 102z"/>
<path d="M7675 1630 c-181 -27 -370 -122 -490 -245 -162 -166 -222 -339 -213
-614 5 -129 9 -157 37 -242 86 -265 303 -448 606 -510 67 -14 134 -19 263 -19
208 0 278 13 410 76 74 36 109 61 167 117 70 70 145 173 145 199 0 12 -121 98
-137 98 -5 0 -26 -28 -48 -61 -52 -79 -134 -152 -215 -192 -59 -29 -75 -32
-175 -35 -94 -3 -118 -1 -169 18 -145 55 -213 190 -232 463 l-7 97 507 0 506
0 0 99 c0 383 -213 661 -564 737 -85 19 -307 26 -391 14z m245 -192 c51 -26
73 -59 94 -140 19 -73 40 -328 29 -339 -5 -5 -101 -8 -214 -7 l-204 3 3 70
c13 333 128 496 292 413z"/>
<path d="M32 1533 l3 -77 40 -9 c22 -4 49 -15 60 -23 19 -14 20 -30 26 -522 4
-453 7 -513 23 -562 56 -169 156 -275 304 -320 99 -31 294 -28 399 5 127 40
245 130 315 238 l33 52 3 -148 3 -147 372 2 372 3 3 72 c3 72 3 72 -25 79 -64
14 -94 27 -103 44 -6 12 -10 270 -10 704 l0 686 -415 0 -415 0 0 -74 c0 -76 5
-86 48 -86 34 0 94 -22 113 -41 18 -18 19 -37 19 -472 l0 -452 -26 -40 c-37
-56 -103 -124 -139 -142 -41 -22 -125 -22 -158 0 -15 9 -35 32 -44 50 -17 29
-18 81 -21 645 l-3 612 -390 0 -390 0 3 -77z"/>
</g>
</svg>
